<svg width="64" height="64" viewBox="0 0 64 64" fill="none" xmlns="http://www.w3.org/2000/svg">
<circle cx="32" cy="32" r="32" fill="#0D4477"/>
<path fill-rule="evenodd" clip-rule="evenodd" d="M32 21.65C32.4142 21.65 32.75 21.9857 32.75 22.4V31.25H41.6C42.0142 31.25 42.35 31.5858 42.35 32C42.35 32.4142 42.0142 32.75 41.6 32.75H32.75V41.6C32.75 42.0142 32.4142 42.35 32 42.35C31.5858 42.35 31.25 42.0142 31.25 41.6V32.75H22.4C21.9858 32.75 21.65 32.4142 21.65 32C21.65 31.5858 21.9858 31.25 22.4 31.25H31.25V22.4C31.25 21.9857 31.5858 21.65 32 21.65Z" fill="#F8FAFC"/>
</svg>
