<svg width="24" height="25" viewBox="0 0 24 25" fill="none" xmlns="http://www.w3.org/2000/svg">
<path d="M18 8.01715C17.94 8.00715 17.87 8.00715 17.81 8.01715C16.43 7.96715 15.33 6.83715 15.33 5.43715C15.33 4.00715 16.48 2.85715 17.91 2.85715C19.34 2.85715 20.49 4.01715 20.49 5.43715C20.48 6.83715 19.38 7.96715 18 8.01715Z" stroke="#0D4477" stroke-width="1.5" stroke-linecap="round" stroke-linejoin="round"/>
<path d="M16.9699 15.2972C18.3399 15.5272 19.8499 15.2872 20.9099 14.5772C22.3199 13.6372 22.3199 12.0972 20.9099 11.1572C19.8399 10.4472 18.3099 10.2072 16.9399 10.4472" stroke="#0D4477" stroke-width="1.5" stroke-linecap="round" stroke-linejoin="round"/>
<path d="M5.96998 8.01715C6.02998 8.00715 6.09998 8.00715 6.15998 8.01715C7.53998 7.96715 8.63998 6.83715 8.63998 5.43715C8.63998 4.00715 7.48998 2.85715 6.05998 2.85715C4.62998 2.85715 3.47998 4.01715 3.47998 5.43715C3.48998 6.83715 4.58998 7.96715 5.96998 8.01715Z" stroke="#0D4477" stroke-width="1.5" stroke-linecap="round" stroke-linejoin="round"/>
<path d="M6.99994 15.2972C5.62994 15.5272 4.11994 15.2872 3.05994 14.5772C1.64994 13.6372 1.64994 12.0972 3.05994 11.1572C4.12994 10.4472 5.65994 10.2072 7.02994 10.4472" stroke="#0D4477" stroke-width="1.5" stroke-linecap="round" stroke-linejoin="round"/>
<path d="M12 15.4872C11.94 15.4772 11.87 15.4772 11.81 15.4872C10.43 15.4372 9.32996 14.3072 9.32996 12.9072C9.32996 11.4772 10.48 10.3271 11.91 10.3271C13.34 10.3271 14.49 11.4872 14.49 12.9072C14.48 14.3072 13.38 15.4472 12 15.4872Z" stroke="#0D4477" stroke-width="1.5" stroke-linecap="round" stroke-linejoin="round"/>
<path d="M14.91 18.6372C13.32 17.5772 10.69 17.5772 9.08997 18.6372C7.67997 19.5772 7.67997 21.1172 9.08997 22.0572C10.69 23.1272 13.31 23.1272 14.91 22.0572" stroke="#0D4477" stroke-width="1.5" stroke-linecap="round" stroke-linejoin="round"/>
</svg>
